<svg xmlns="http://www.w3.org/2000/svg" viewBox="0 0 50 50">
  <defs>
    <style>
      .cls-1, .cls-4 {
        fill: none;
      }

      .cls-1 {
        stroke: #fff;
      }

      .cls-2 {
        fill: #fff;
      }

      .cls-3 {
        stroke: none;
      }
    </style>
  </defs>
  <g id="github" transform="translate(-112 -250)">
    <g id="Rectangle_1" data-name="Rectangle 1" class="cls-1" transform="translate(112 250)">
      <rect class="cls-3" width="50" height="50" rx="5"/>
      <rect class="cls-4" x="0.5" y="0.5" width="49" height="49" rx="4.5"/>
    </g>
    <path id="github-alt-brands" class="cls-2" d="M14.727,84.948c0,1.654-.863,4.36-2.9,4.36s-2.9-2.707-2.9-4.36.863-4.36,2.9-4.36S14.727,83.294,14.727,84.948Zm23.259-4A17.151,17.151,0,0,1,36.6,88.469c-3,6.062-11.245,5.919-17.149,5.919-6,0-14.735.214-17.853-5.919A16.939,16.939,0,0,1,0,80.951a13.609,13.609,0,0,1,3.284-8.99A12.388,12.388,0,0,1,2.675,68.1,7.88,7.88,0,0,1,3.83,64a12.365,12.365,0,0,1,8.61,2.849,30.313,30.313,0,0,1,7.02-.791,27.3,27.3,0,0,1,6.363.728A12.231,12.231,0,0,1,34.354,64a7.807,7.807,0,0,1,1.155,4.1,12.214,12.214,0,0,1-.609,3.814A13.635,13.635,0,0,1,37.986,80.951Zm-5.089,4c0-3.474-2.113-6.537-5.817-6.537a32.538,32.538,0,0,0-4.432.475,23.252,23.252,0,0,1-3.569.253,23.394,23.394,0,0,1-3.569-.253,32.01,32.01,0,0,0-4.432-.475c-3.7,0-5.817,3.063-5.817,6.537,0,6.948,6.363,8.017,11.9,8.017h3.814C26.543,92.964,32.9,91.9,32.9,84.948Zm-6.537-4.36c-2.042,0-2.9,2.707-2.9,4.36s.863,4.36,2.9,4.36,2.9-2.707,2.9-4.36S28.4,80.587,26.361,80.587Z" transform="translate(118 196)"/>
  </g>
</svg>
