<svg xmlns="http://www.w3.org/2000/svg" viewBox="0 0 50 50">
  <defs>
    <style>
      .cls-1 {
        fill: none;
      }

      .cls-2, .cls-4 {
        fill: #fff;
      }

      .cls-3, .cls-4 {
        stroke: none;
      }
    </style>
  </defs>
  <g id="linkedin" transform="translate(-212 -250)">
    <g id="Path_2" data-name="Path 2" class="cls-1" transform="translate(212 250)">
      <path class="cls-3" d="M5,0H45a5,5,0,0,1,5,5V45a5,5,0,0,1-5,5H5a5,5,0,0,1-5-5V5A5,5,0,0,1,5,0Z"/>
      <path class="cls-4" d="M 5 1 C 2.794391632080078 1 1 2.794391632080078 1 5 L 1 45 C 1 47.20560836791992 2.794391632080078 49 5 49 L 45 49 C 47.20560836791992 49 49 47.20560836791992 49 45 L 49 5 C 49 2.794391632080078 47.20560836791992 1 45 1 L 5 1 M 5 0 L 45 0 C 47.76142120361328 0 50 2.238571166992188 50 5 L 50 45 C 50 47.76142120361328 47.76142120361328 50 45 50 L 5 50 C 2.238571166992188 50 0 47.76142120361328 0 45 L 0 5 C 0 2.238571166992188 2.238571166992188 0 5 0 Z"/>
    </g>
    <path id="linkedin-in-brands" class="cls-2" d="M7.024,31.381H.518V10.43H7.024ZM3.768,7.572a3.786,3.786,0,1,1,3.768-3.8A3.8,3.8,0,0,1,3.768,7.572ZM31.374,31.381H24.882v-10.2c0-2.431-.049-5.548-3.383-5.548-3.383,0-3.9,2.641-3.9,5.373V31.381H11.1V10.43h6.24v2.858h.091A6.836,6.836,0,0,1,23.587,9.9c6.583,0,7.794,4.336,7.794,9.968V31.381h-.007Z" transform="translate(221 259)"/>
  </g>
</svg>
