<svg id="Logo" xmlns="http://www.w3.org/2000/svg" viewBox="0 0 96.17 34.605">
  <defs>
    <style>
      .cls-1 {
        fill: #707070;
      }

      .cls-2 {
        fill: #f47833;
      }

      .cls-3 {
        fill: #4c8dcb;
      }

      .cls-4 {
        fill: #fff;
      }
    </style>
  </defs>
  <g id="Layer_1" data-name="Layer 1">
    <path id="Path_19" data-name="Path 19" class="cls-1" d="M57.14,57.81Z" transform="translate(-38.089 -38.9)"/>
    <path id="Path_20" data-name="Path 20" class="cls-2" d="M40.091,62.311l.73-1.7h0l4.211-9.826,4.211,9.826h0l1.427,3.327h3.237L45.032,43,36.16,63.935H39.4Z" transform="translate(-24.104 -29.33)"/>
    <path id="Path_21" data-name="Path 21" class="cls-3" d="M14.927,0,0,34.548H3.284l2.727-6.306L8.4,22.674h-.04l1.627-3.729.73-1.671h0l4.211-9.64,3.5,8.02,1.63-3.771Z"/>
    <path id="Path_22" data-name="Path 22" class="cls-4" d="M114.808,0V16.4a12.618,12.618,0,0,0-7.9-3.271,10.718,10.718,0,1,0,0,21.432,12.676,12.676,0,0,0,7.9-3.336v3.336h3.054V0Zm-7.9,31.608a7.848,7.848,0,0,1-5.54-2.267,7.8,7.8,0,0,1-.006-10.936,7.809,7.809,0,1,1,5.546,13.219Z" transform="translate(-64.765)"/>
    <path id="Path_23" data-name="Path 23" class="cls-4" d="M190.425,49.612a5.555,5.555,0,0,0,.057.807c0,.4-.057.75-.057,2.074H171.794a8.412,8.412,0,0,0,7.839,6.455,8.749,8.749,0,0,0,6.858-3.978l2.537,1.614c-1.667,3.057-5.938,5.361-9.4,5.361a10.923,10.923,0,1,1,0-21.845C184.937,40.1,190.425,44.308,190.425,49.612Zm-3.114,0a8.265,8.265,0,0,0-7.668-6.455,8.412,8.412,0,0,0-7.839,6.455Z" transform="translate(-113.775 -27.397)"/>
    <path id="Path_24" data-name="Path 24" class="cls-4" d="M247.429,61.632,238.14,39.79h2.881l6.408,14.81,6.281-14.81h3.054Z" transform="translate(-160.595 -27.19)"/>
  </g>
</svg>
