<svg id="Logo" xmlns="http://www.w3.org/2000/svg" viewBox="0 0 59.248 21.319">
  <defs>
    <style>
      .cls-1 {
        fill: #707070;
      }

      .cls-2 {
        fill: #f47833;
      }

      .cls-3 {
        fill: #4c8dcb;
      }

      .cls-4 {
        fill: #232528;
      }
    </style>
  </defs>
  <g id="Layer_1" data-name="Layer 1">
    <path id="Path_19" data-name="Path 19" class="cls-1" d="M57.14,57.81Z" transform="translate(-45.403 -46.16)"/>
    <path id="Path_20" data-name="Path 20" class="cls-2" d="M38.582,54.9l.45-1.05h0l2.594-6.053,2.594,6.053h0L45.1,55.9h1.995L41.626,43,36.16,55.9h1.995Z" transform="translate(-28.732 -34.578)"/>
    <path id="Path_21" data-name="Path 21" class="cls-3" d="M9.2,0,0,21.284H2.023L3.7,17.4l1.471-3.43H5.15l1-2.3.45-1.03h0L9.2,4.7l2.159,4.941,1-2.324Z"/>
    <path id="Path_22" data-name="Path 22" class="cls-4" d="M107.583,0V10.1a7.774,7.774,0,0,0-4.864-2.015,6.6,6.6,0,1,0,0,13.2,7.809,7.809,0,0,0,4.864-2.055V21.29h1.882V0Zm-4.864,19.473a4.835,4.835,0,0,1-3.413-1.4,4.8,4.8,0,0,1,0-6.738,4.811,4.811,0,1,1,3.417,8.144Z" transform="translate(-76.753)"/>
    <path id="Path_23" data-name="Path 23" class="cls-4" d="M182.057,45.96a3.421,3.421,0,0,0,.035.5c0,.249-.035.462-.035,1.278H170.579a5.182,5.182,0,0,0,4.829,3.977,5.39,5.39,0,0,0,4.225-2.451l1.563.994a7.192,7.192,0,0,1-5.788,3.3,6.729,6.729,0,1,1,0-13.458C178.676,40.1,182.057,42.692,182.057,45.96Zm-1.918,0a5.092,5.092,0,0,0-4.724-3.977,5.182,5.182,0,0,0-4.829,3.977Z" transform="translate(-134.835 -32.274)"/>
    <path id="Path_24" data-name="Path 24" class="cls-4" d="M243.863,53.246,238.14,39.79h1.775l3.948,9.124,3.87-9.124h1.882Z" transform="translate(-190.366 -32.028)"/>
  </g>
</svg>
